<svg xmlns="http://www.w3.org/2000/svg" width="46" height="45" viewBox="0 0 46 45">
    <g fill="none" fill-rule="evenodd" stroke="#4F3690" stroke-linecap="round" stroke-linejoin="round">
        <g stroke-width="1.655">
            <path d="M33.887 37.764v5.826H.827V1.352H21.83L33.887 13.27v9.93"/>
            <path d="M33.534 13.129H22.322V1.846M44.531 35.943a1.822 1.822 0 0 1-1.821 1.822H15.317a1.822 1.822 0 0 1-1.822-1.822V25.02a1.82 1.82 0 0 1 1.822-1.818H42.71a1.82 1.82 0 0 1 1.821 1.818v10.924z"/>
        </g>
        <g fill="#4F3690" stroke-width=".632">
            <path d="M20.887 33.833h.846v-2.58h1.38c.484 0 .883-.055 1.2-.166.315-.111.568-.263.755-.457.187-.192.315-.415.391-.67a2.88 2.88 0 0 0 .005-1.559c-.073-.24-.2-.45-.384-.629-.182-.179-.434-.323-.753-.43-.32-.103-.725-.156-1.215-.156h-2.225v6.647zm.846-3.304V27.91h1.362c.315 0 .578.028.785.079.207.053.374.134.498.237.124.106.212.24.26.402.05.161.076.348.076.558 0 .205-.025.39-.07.553a.969.969 0 0 1-.246.425 1.145 1.145 0 0 1-.495.27c-.21.063-.477.094-.8.094h-1.37zM26.715 33.833h2.115c.507 0 .967-.07 1.376-.215.41-.141.758-.353 1.044-.631.285-.28.505-.63.657-1.054.151-.422.227-.912.227-1.47 0-.553-.07-1.033-.215-1.443a2.756 2.756 0 0 0-.609-1.025 2.478 2.478 0 0 0-.967-.61 3.92 3.92 0 0 0-1.301-.199h-2.327v6.647zm.856-.745V27.92h1.47c.387 0 .718.059.999.172.278.114.507.283.682.503.18.22.308.49.391.806.084.316.127.677.127 1.079 0 .813-.19 1.452-.569 1.915-.376.462-.98.692-1.804.692h-1.296zM33.363 33.833h.856V30.89h3.065v-.77h-3.065v-2.18h3.27v-.754h-4.126z"/>
        </g>
    </g>
</svg>
