<svg xmlns="http://www.w3.org/2000/svg" width="70" height="53" viewBox="0 0 70 53">
    <g fill="none" fill-rule="evenodd" stroke="#4F3690" stroke-linecap="round" stroke-linejoin="round" stroke-width="1.78">
        <path d="M1.287 9.678h8.975V.938H1.287zM15.026 9.678h8.975V.938h-8.975zM28.769 9.678h8.974V.938H28.77zM42.508 9.678h8.975V.938h-8.975zM28.07 27.12H.938v8.74h26.157a20.24 20.24 0 0 1 .975-8.74M41.306 13.749H.937v8.74h29.41c2.923-4.419 5.597-7.639 10.96-8.74M50.192 15.616c-9.964 0-18.072 8.105-18.072 18.073 0 9.964 8.108 18.072 18.072 18.072 9.964 0 18.072-8.108 18.072-18.072 0-9.968-8.108-18.073-18.072-18.073"/>
        <path d="M55.592 27.274v-2.14c-.094-5.733-6.429-5.141-7.716-3.371-.166.226-.417.16-.417.16-1.774 0-2.998 1.436-2.998 3.212v2.14s-.95-.184-.855 1.072v2.139c0 .592.58 1.07 1.173 1.07 0 2.957 2.445 6.42 5.402 6.42 2.958 0 5.274-3.463 5.274-6.42.592 0 .993-.478.993-1.07v-2.14c0-.594.042-1.072-.856-1.072zM39.326 45.575v-1.178c0-2.958 2.062-4.388 5.02-4.388h1.604l1.75-2.522M61.586 45.575v-1.178c0-2.958-2.422-4.388-5.38-4.388h-1.604l-1.679-2.685"/>
    </g>
</svg>
