<svg xmlns="http://www.w3.org/2000/svg" width="60" height="53" viewBox="0 0 60 53">
    <g fill="#4F3690" fill-rule="nonzero">
        <path d="M30.04 37.837a2.613 2.613 0 0 1-2.613-2.613l-.864-17.94c0-2.287 1.81-3.304 3.488-3.304 1.586 0 3.447.854 3.447 3.264l-.854 18.03c0 1.394-1.17 2.563-2.603 2.563zm0-21.844c-.437 0-1.474.122-1.474 1.24l.865 17.94c0 .752 1.2.702 1.2.05l.833-18.03c.01-.295.01-1.2-1.423-1.2zM30.03 45.647a3.314 3.314 0 0 1-3.305-3.315 3.314 3.314 0 0 1 3.306-3.315 3.316 3.316 0 0 1 0 6.63zm0-4.606c-.711 0-1.291.58-1.291 1.301a1.296 1.296 0 1 0 2.593 0c0-.722-.58-1.301-1.301-1.301z"/>
        <path d="M58.973 52.298H1.027c-.356 0-.691-.193-.874-.508a.992.992 0 0 1 0-1.007L29.136.607a.992.992 0 0 1 .874-.509c.356 0 .692.194.875.509l28.962 50.176a.992.992 0 0 1 0 1.007 1.016 1.016 0 0 1-.874.508zM2.776 50.285h54.448L30 3.129 2.776 50.285z"/>
    </g>
</svg>
