<svg xmlns="http://www.w3.org/2000/svg" width="58" height="61" viewBox="0 0 58 61">
    <g fill="#4F3690" fill-rule="nonzero">
        <path d="M19.662 20.829l-18.109-.03a.89.89 0 0 1-.886-.897c0-.489.397-.886.886-.886l18.109.03a.89.89 0 0 1 .886.897.887.887 0 0 1-.886.886zM21.231 25.565l-19.678-.03a.89.89 0 0 1-.886-.897c0-.489.397-.886.886-.886l19.678.03a.89.89 0 0 1 .887.897.887.887 0 0 1-.887.886zM24.563 30.311l-23.01-.03a.89.89 0 0 1-.886-.897c0-.489.397-.886.886-.886l23.01.03a.89.89 0 0 1 .887.897.887.887 0 0 1-.887.886zM21.924 10.114a.887.887 0 0 1-.887-.886c0-.49.398-.897.887-.897l20.523-.05c.49 0 .887.397.887.886a.896.896 0 0 1-.887.896l-20.523.05zM19.672 17.844a.887.887 0 0 1-.887-.886c0-.489.398-.886.887-.896l22.775-.03c.49 0 .887.397.887.886a.902.902 0 0 1-.887.896l-22.775.03z"/>
        <path d="M21.231 25.606a.887.887 0 0 1-.886-.887c0-.488.397-.886.886-.896l21.216-.05c.49 0 .887.396.887.885a.902.902 0 0 1-.887.897l-21.216.05z"/>
        <path d="M36.262 35.057c-2.436 0-4.912-.509-7.266-1.588-8.784-4.024-12.646-14.443-8.62-23.223 4.014-8.77 14.429-12.64 23.213-8.616 8.784 4.023 12.656 14.432 8.63 23.212-2.944 6.427-9.313 10.215-15.957 10.215zm.05-33.234c-5.97 0-11.688 3.402-14.327 9.177a15.617 15.617 0 0 0-.448 12.039c1.467 3.942 4.371 7.079 8.193 8.83 7.887 3.616 17.252.133 20.87-7.75 3.617-7.884.142-17.234-7.755-20.85a15.37 15.37 0 0 0-6.532-1.446zm15.103 22.652h.02-.02zM52.658 60.46a4.406 4.406 0 0 1-1.834-.398 4.45 4.45 0 0 1-2.211-2.25L42.386 44.05a4.335 4.335 0 0 1-.05-3.402 4.307 4.307 0 0 1 2.343-2.404c2.242-.947 4.83.082 5.788 2.292l6.237 13.77c.468 1.09.489 2.292.05 3.382a4.34 4.34 0 0 1-2.343 2.404 4.363 4.363 0 0 1-1.753.366zM46.411 39.67c-.346 0-.693.072-1.029.214a2.572 2.572 0 0 0-1.386 1.426 2.566 2.566 0 0 0 .03 2.017l6.227 13.76c.265.611.734 1.09 1.325 1.355a2.613 2.613 0 0 0 2.14.02 2.59 2.59 0 0 0 1.396-1.426 2.586 2.586 0 0 0-.02-2.006l-6.257-13.77a2.635 2.635 0 0 0-2.426-1.59z"/>
        <path d="M41.62 33.794l1.638-.703 2.616 6.093-1.639.703z"/>
    </g>
</svg>
