<svg xmlns="http://www.w3.org/2000/svg" width="60" height="58" viewBox="0 0 60 58">
    <g fill="#4F3690" fill-rule="nonzero">
        <path d="M44.471 57.636H1.78c-.59 0-1.068-.479-1.068-1.07V1.945c0-.591.478-1.07 1.068-1.07h27.122c.284 0 .549.112.752.306l15.57 15.41c.203.204.315.479.315.764v12.843a1.068 1.068 0 1 1-2.136 0V17.792L28.464 3.013H2.847v52.484h40.546V49.03a1.068 1.068 0 1 1 2.136 0v7.537a1.06 1.06 0 0 1-1.058 1.07z"/>
        <path d="M44.014 18.24H29.542c-.59 0-1.067-.479-1.067-1.07V2.575a1.068 1.068 0 1 1 2.135 0v13.516h13.404c.59 0 1.067.478 1.067 1.07 0 .59-.478 1.079-1.067 1.079zM55.861 50.1h-35.37a3.427 3.427 0 0 1-3.416-3.423V32.55a3.427 3.427 0 0 1 3.417-3.422H55.86a3.427 3.427 0 0 1 3.417 3.422v14.117a3.416 3.416 0 0 1-3.417 3.432zm-35.37-18.833c-.711 0-1.28.58-1.28 1.283v14.117c0 .713.579 1.283 1.28 1.283h35.37c.712 0 1.281-.58 1.281-1.283V32.55c0-.713-.58-1.283-1.281-1.283h-35.37z"/>
        <g stroke="#010101" stroke-linecap="round" stroke-linejoin="round" stroke-width=".5">
            <path d="M33.997 41.116a3.95 3.95 0 0 1-.326 1.212 3.138 3.138 0 0 1-.681.967c-.285.275-.64.49-1.048.642-.417.153-.895.224-1.434.224-.59 0-1.128-.102-1.596-.305a3.136 3.136 0 0 1-1.2-.876 4.188 4.188 0 0 1-.763-1.416c-.183-.56-.274-1.192-.274-1.905 0-.723.091-1.365.284-1.925.194-.56.458-1.039.804-1.415a3.336 3.336 0 0 1 1.22-.876 3.779 3.779 0 0 1 1.525-.306c.53 0 .987.071 1.373.204.387.132.712.326.977.58.264.245.488.55.65.886.163.347.295.724.377 1.141l-1.078.183a3.745 3.745 0 0 0-.285-.845 1.961 1.961 0 0 0-.447-.642 1.859 1.859 0 0 0-.651-.407 2.7 2.7 0 0 0-.916-.143c-.427 0-.803.082-1.139.255-.335.173-.61.418-.844.723a3.256 3.256 0 0 0-.518 1.12 5.36 5.36 0 0 0-.183 1.447c0 .53.06 1.018.183 1.446.122.438.295.815.518 1.13.224.316.509.55.844.724.336.173.712.255 1.15.255.396 0 .732-.051 1.006-.153.275-.102.509-.245.682-.428.183-.183.325-.407.427-.662a3.55 3.55 0 0 0 .224-.845h1.139v.01zM36.305 41.503c.092.6.336 1.039.712 1.303.376.265.946.408 1.698.408.377 0 .692-.04.946-.122a1.59 1.59 0 0 0 .61-.336c.153-.143.265-.306.326-.49.06-.193.091-.386.091-.6 0-.173-.02-.336-.06-.49a1.11 1.11 0 0 0-.235-.427 1.334 1.334 0 0 0-.478-.336 3.15 3.15 0 0 0-.783-.224l-1.078-.194a7.005 7.005 0 0 1-1.129-.285 2.74 2.74 0 0 1-.833-.468 1.977 1.977 0 0 1-.52-.703 2.77 2.77 0 0 1-.172-1.019c0-.397.081-.733.244-1.039.163-.295.387-.55.671-.743.285-.204.61-.346.997-.448a5.405 5.405 0 0 1 1.25-.143c.57 0 1.048.061 1.424.184.377.122.692.295.936.499.244.214.427.448.55.713.121.264.213.54.284.825l-1.037.203a2.635 2.635 0 0 0-.244-.641 1.373 1.373 0 0 0-.397-.469 1.885 1.885 0 0 0-.61-.285 3.601 3.601 0 0 0-.875-.092c-.396 0-.722.041-.986.112a1.874 1.874 0 0 0-.64.296 1.05 1.05 0 0 0-.347.448 1.429 1.429 0 0 0-.101.55c0 .214.03.387.081.55.05.153.142.295.264.407.122.112.285.214.489.285.203.082.447.143.742.204l1.2.214c.895.173 1.546.448 1.963.835.417.387.62.958.62 1.711 0 .347-.061.673-.193.968-.132.305-.326.56-.59.784-.264.224-.59.397-.976.53-.397.132-.855.193-1.383.193-.509 0-.967-.05-1.373-.152a2.978 2.978 0 0 1-1.078-.48 2.33 2.33 0 0 1-.732-.834c-.184-.336-.295-.744-.336-1.202h1.088zM42.498 35.35h1.251l2.614 7.161 2.654-7.16h1.19l-3.295 8.596h-1.119z"/>
        </g>
    </g>
</svg>
