<svg xmlns="http://www.w3.org/2000/svg" width="56" height="55" viewBox="0 0 56 55">
    <g fill="none" fill-rule="evenodd" stroke="#4F3690" stroke-linecap="round" stroke-linejoin="round" stroke-width="1.78">
        <path d="M37.832 42.962L26.922 53.92l10.91-10.958zM33.565 38.649L19.022 53.256l14.543-14.607zM29.298 34.336L12.944 50.763l16.354-16.427zM25.032 30.023L8.095 47.033l16.937-17.01zM24.946 21.512L4.343 42.203l20.603-20.69zM24.946 12.914l-23.14 23.24 23.14-23.24zM23.324 5.942L1.056 28.31 23.324 5.942zM29.231 1c13.15 0 23.824 10.644 23.949 23.821H29.223V1h.008zM54.997 29.25l.003.236a24.038 24.038 0 0 1-7.07 17.065L31.049 29.486l-.002-.235h23.95z"/>
        <path d="M41.835 47.01C37.505 51.33 31.539 54 24.954 54 11.724 54 1 43.23 1 29.942 1 16.66 11.72 5.891 24.946 5.886v23.822h.006l.002.234 16.88 17.067z"/>
    </g>
</svg>
