<svg xmlns="http://www.w3.org/2000/svg" width="73" height="115" viewBox="0 0 73 115">
    <g fill="none" fill-rule="evenodd" stroke="#4F3690" stroke-width="3">
        <path stroke-linecap="round" stroke-linejoin="round" d="M61.709 46.249c-7.223 15.76-25.86 22.69-41.615 15.467-15.76-7.223-22.674-25.86-15.451-41.62 7.223-15.76 25.85-22.674 41.609-15.451 15.76 7.218 22.68 25.845 15.457 41.604z"/>
        <path d="M70.157 103.273L58.39 77.258c-1.436-3.319-5.345-4.873-8.716-3.452a6.57 6.57 0 0 0-3.53 3.632 6.551 6.551 0 0 0 .078 5.094l11.763 26.004a6.606 6.606 0 0 0 3.324 3.396 6.646 6.646 0 0 0 5.392.062c1.631-.708 2.888-1.996 3.53-3.633a6.56 6.56 0 0 0-.073-5.088zM44.778 63.197l4.935 11.507"/>
    </g>
</svg>
