<svg xmlns="http://www.w3.org/2000/svg" width="59" height="55" viewBox="0 0 59 55">
    <g fill="none" fill-rule="evenodd" stroke="#4F3690" stroke-linecap="round" stroke-linejoin="round" stroke-width="1.834">
        <path d="M18.58 10.74c6.966 0 11.88 5.6 11.88 12.569V45.56H6.606v-9.646"/>
        <path d="M6.536 21.171c.949-5.796 5.451-10.267 11.412-10.416 6.877-.173 27.513-.061 27.513-.061 6.972 0 12.525 5.647 12.525 12.614V45.559H29.543M35.964 7.023h9.175V1.52h-9.175zM35.964 4.272v18.35M26.79 53.817V45.56H37.8v8.257"/>
        <path d="M26.54 40.054h3.695V21.705H19.657z"/>
        <path d="M27.708 21.705H10.482l6.883 18.348h10.343"/>
        <path d="M18.533 21.705H1.307L8.19 40.053h10.343"/>
    </g>
</svg>
