<svg xmlns="http://www.w3.org/2000/svg" width="52" height="54" viewBox="0 0 52 54">
    <g fill="none" fill-rule="evenodd" stroke="#4F3690" stroke-width="1.78">
        <path d="M28.728 27.962l-4.033-4.033 21.3-21.3a2.852 2.852 0 0 1 4.034 4.033l-21.3 21.3z"/>
        <path d="M18.455 51.502L1.548 34.596l12.344-9.348a9.93 9.93 0 0 1 13.91 13.91l-9.347 12.344zM14.671 24.47l13.91 13.91M36.008 38.724h1.49a2.506 2.506 0 1 1 0 5.01l-7.002.002M41.771 52.63h1.49a2.506 2.506 0 1 0 0-5.012l-15.96.001"/>
    </g>
</svg>
