<svg xmlns="http://www.w3.org/2000/svg" width="43" height="44" viewBox="0 0 43 44">
    <g fill="none" fill-rule="evenodd" stroke="#4F3690" stroke-linecap="round" stroke-linejoin="round" stroke-width="1.5">
        <path d="M31.83 39.212a19.577 19.577 0 0 1-10.653 3.129c-4.255 0-8.196-1.35-11.415-3.647M40.434 18.592c.276 1.313.422 2.677.422 4.07 0 4.607-1.582 8.843-4.233 12.194M24.183 3.214c5.59.857 10.407 4.067 13.404 8.587M4.776 11.789a19.7 19.7 0 0 1 12.723-8.46M5.143 34.074A19.583 19.583 0 0 1 1.5 22.664c0-1.404.146-2.774.426-4.094M31.445 22.664A10.264 10.264 0 0 1 21.179 32.93c-5.67 0-10.268-4.594-10.268-10.266 0-5.668 4.599-10.267 10.268-10.267 5.67 0 10.266 4.6 10.266 10.267zM20.908 9.436l-.014 7.132M20.908 9.436l-.014 7.132"/>
        <path d="M33.954 17.75l-.419.162-6.65 2.567"/>
        <path d="M33.954 17.75l-.419.162-6.65 2.567M29.676 32.285l-.86-.96-3.626-4.038"/>
        <path d="M29.676 32.285l-.86-.96-3.626-4.038M8.309 17.947l7.084 2.735M8.309 17.947l7.084 2.735M12.18 32.215l4.664-5.224M12.18 32.215l4.664-5.224"/>
        <path d="M27.292 22.672a6.117 6.117 0 1 1-12.233.002 6.117 6.117 0 0 1 12.233-.002zM8.84 15.832a4 4 0 1 1-8 0 4 4 0 0 1 8 0zM24.876 5.467a4 4 0 1 1-8 .001 4 4 0 0 1 8 0zM36.623 35.21a4 4 0 1 1-8 .001 4 4 0 0 1 8 0zM13.085 34.752a4 4 0 1 1-8 0 4 4 0 0 1 8 0zM41.542 15.832a4 4 0 1 1-8 0 4 4 0 0 1 8 0z"/>
    </g>
</svg>
