<svg xmlns="http://www.w3.org/2000/svg" width="269" height="41" viewBox="0 0 269 41">
    <g fill="none" fill-rule="evenodd">
        <g fill="#111B58" fill-rule="nonzero">
            <path d="M17.112 20.134c0 3.928-2.315 8.21-8.538 8.21-4.486 0-8.574-2.442-8.574-8.21 0-4.777 3.075-8.457 9.19-8.139 6.511.39 7.922 5.308 7.922 8.14zM5.499 17.126c-.579.885-.796 1.911-.796 2.973 0 2.406 1.23 4.6 3.835 4.6 2.532 0 3.799-2.017 3.799-4.423 0-1.699-.435-3.008-1.303-3.822-.977-.885-2.062-.92-2.75-.85-1.338.142-2.134.567-2.785 1.522zM58.268 13.704c.47-.484.76-.83 1.59-1.21a8.407 8.407 0 0 1 2.893-.518c.94 0 2.025.138 2.856.588 1.663.83 2.097 2.212 2.097 4.597V27.6H63.04v-8.607c0-1.383-.036-1.867-.217-2.281-.361-.83-1.193-1.176-2.097-1.176-2.458 0-2.458 1.901-2.458 3.803v8.226h-4.7V12.356h4.736v1.348h-.036zM51.162 23.916c-.419.885-1.744 4.428-7.673 4.428-4.569 0-7.777-2.834-7.777-7.971 0-3.755 1.813-8.396 7.882-8.396.906 0 3.557-.106 5.545 2.055 1.988 2.196 2.127 5.243 2.197 7.014H40.35c-.035 1.949 1.047 3.897 3.523 3.897s3.313-1.63 3.87-2.763l3.419 1.736zm-4.5-5.775c-.104-.673-.209-1.523-.836-2.232-.558-.567-1.43-.85-2.197-.85a3.088 3.088 0 0 0-2.302 1.027c-.628.673-.767 1.417-.907 2.055h6.243zM115.239 15.385h3.057v-3.158h-3.022V9h-4.586v3.227h-.71l-2.098 3.158h2.844v7.253c0 1.457.036 2.533.675 3.47.996 1.423 2.738 1.492 4.337 1.492.854 0 1.458-.104 2.418-.243v-3.505l-1.635.07c-1.245 0-1.245-.798-1.21-1.735v-6.802h-.07zM69.229 9h4.726v3.227h4.909l-2.162 3.158h-2.784v6.802c-.037.937-.037 1.735 1.246 1.735l1.685-.07v3.505c-1.026.139-1.649.243-2.491.243-1.649 0-3.444-.104-4.47-1.492-.66-.902-.696-1.978-.696-3.47V9h.037zM122.838 15.696h-.557v-2.523h-1.009v-.42h2.576v.42h-1.01v2.523zm4.386 0h-.557l.035-1.811.035-.615-.14.485-.66 1.941h-.488l-.627-1.94-.174-.486.035.582.035 1.812h-.592V12.72h.766l.8 2.329.766-2.329h.766v2.976zM93.325 23.951l-.871 1.346c-.803 1.205-2.337 3.047-6.696 3.047-4.569 0-7.638-2.834-7.638-7.971 0-3.755 1.813-8.396 7.882-8.396.906 0 3.557-.106 5.545 2.055 1.988 2.196 2.127 5.243 2.197 7.014H82.758c-.035 1.949.907 3.897 3.348 3.897 2.476 0 3.174-1.63 3.732-2.763l3.487 1.771zm-4.254-5.774c-.105-.674-.21-1.524-.837-2.232-.558-.567-1.43-.85-2.197-.85a3.088 3.088 0 0 0-2.302 1.027c-.628.673-.767 1.417-.907 2.055h6.243z"/>
            <path d="M108.624 27.6l-5.777-7.812 4.814-7.068h-5.278l-2.282 3.348-2.425-3.348H92.4l5.17 7.068-5.313 7.812h5.242l2.817-4.092 3.031 4.092zM23.867 13.783c.414-.687 1.795-1.807 4.005-1.807 3.728 0 6.352 2.964 6.352 8.276 0 3.253-1.14 8.421-6.56 8.421-1.933 0-3.452-1.12-3.832-1.807v6.686h-4.488V12.374h4.523v1.409zm3.038 1.88c-.829 0-1.657.325-2.313 1.192-.656.831-.932 2.096-.932 3.506 0 1.879.517 3 1.07 3.65.518.614 1.277.976 2.002.976 2.175 0 3.142-2.422 3.142-4.735 0-1.951-.552-4.048-2.382-4.481a1.549 1.549 0 0 0-.587-.109z"/>
        </g>
        <path fill="#4F3690" fill-rule="nonzero" d="M162.304 28V10.864h2.376V28h-2.376zm17.281 0v-7.584c0-1.152-.276-1.988-.828-2.508-.552-.52-1.444-.78-2.676-.78-.656 0-1.308.124-1.956.372a4.88 4.88 0 0 0-1.668 1.044c-.4.368-.704.78-.912 1.236a3.403 3.403 0 0 0-.312 1.428V28h-2.256V15.592h2.232v2.304c1.36-1.792 3.176-2.688 5.448-2.688 1.712 0 3.004.404 3.876 1.212.872.808 1.308 2.004 1.308 3.588V28h-2.256zm13.921-.216c-.96.32-1.984.48-3.072.48-1.36 0-2.36-.328-3-.984-.64-.656-.96-1.696-.96-3.12v-6.792h-2.424v-1.776h2.424v-3.384h2.256v3.384h4.416v1.776h-4.416v6.984c0 1.376.696 2.064 2.088 2.064.768 0 1.544-.128 2.328-.384l.36 1.752zm3.481-5.352c.032 1.28.46 2.296 1.284 3.048.824.752 1.932 1.128 3.324 1.128 2.32 0 3.744-.696 4.272-2.088h2.16c-.672 2.576-2.848 3.864-6.528 3.864-2.112 0-3.768-.576-4.968-1.728-1.2-1.152-1.8-2.736-1.8-4.752 0-1.296.276-2.448.828-3.456.552-1.008 1.348-1.8 2.388-2.376 1.04-.576 2.248-.864 3.624-.864 2.096 0 3.728.548 4.896 1.644 1.168 1.096 1.752 2.628 1.752 4.596v.984h-11.232zm9.024-1.704c-.016-1.2-.408-2.128-1.176-2.784-.768-.656-1.864-.984-3.288-.984-1.232 0-2.256.336-3.072 1.008-.816.672-1.296 1.592-1.44 2.76h8.976zm16.609 4.56a5.766 5.766 0 0 1-2.28 1.836c-.928.424-1.992.636-3.192.636-1.216 0-2.3-.252-3.252-.756a5.49 5.49 0 0 1-2.244-2.196c-.544-.96-.816-2.072-.816-3.336 0-1.168.268-2.224.804-3.168s1.304-1.696 2.304-2.256c1-.56 2.148-.84 3.444-.84 1.2 0 2.224.192 3.072.576.848.384 1.592.992 2.232 1.824v-2.016h2.184v10.224c0 2.48-.532 4.284-1.596 5.412-1.064 1.128-2.78 1.692-5.148 1.692-2.08 0-3.664-.308-4.752-.924-1.088-.616-1.736-1.564-1.944-2.844h2.232c.24.704.704 1.212 1.392 1.524.688.312 1.704.468 3.048.468 1.552 0 2.692-.352 3.42-1.056.728-.704 1.092-1.808 1.092-3.312v-1.488zm.024-4.08c0-1.136-.424-2.128-1.272-2.976-.784-.784-1.904-1.176-3.36-1.176-1.52 0-2.7.384-3.54 1.152-.84.768-1.26 1.848-1.26 3.24 0 1.376.416 2.464 1.248 3.264.832.8 1.96 1.2 3.384 1.2.736 0 1.416-.112 2.04-.336.624-.224 1.136-.544 1.536-.96.816-.816 1.224-1.776 1.224-2.88v-.528zM228.405 28V15.592h2.232v2.328c.608-.832 1.308-1.464 2.1-1.896a5.255 5.255 0 0 1 2.556-.648c.352 0 .784.04 1.296.12l-.264 1.968a7.014 7.014 0 0 0-1.224-.12c-.672 0-1.264.096-1.776.288a4.297 4.297 0 0 0-1.416.888c-.832.768-1.248 1.664-1.248 2.688V28h-2.256zm10.777 0V15.592h2.256V28h-2.256zm-.072-14.688v-2.448h2.4v2.448h-2.4zm14.329 14.472c-.96.32-1.984.48-3.072.48-1.36 0-2.36-.328-3-.984-.64-.656-.96-1.696-.96-3.12v-6.792h-2.424v-1.776h2.424v-3.384h2.256v3.384h4.416v1.776h-4.416v6.984c0 1.376.696 2.064 2.088 2.064.768 0 1.544-.128 2.328-.384l.36 1.752zm7.009-.096l-6.24-12.096h2.64l4.824 9.744 4.392-9.744h2.52l-6.576 13.8c-.624 1.312-1.276 2.228-1.956 2.748-.68.52-1.556.78-2.628.78a5.53 5.53 0 0 1-1.152-.108 6.894 6.894 0 0 1-1.104-.348l.408-1.728a4.608 4.608 0 0 0 1.584.288c.624 0 1.148-.156 1.572-.468.424-.312.788-.804 1.092-1.476l.624-1.392z"/>
        <path stroke="#7E929F" stroke-linecap="square" d="M144 1v39" opacity=".5"/>
    </g>
</svg>
