<svg xmlns="http://www.w3.org/2000/svg" width="251" height="41" viewBox="0 0 251 41">
    <g fill="none" fill-rule="evenodd">
        <g fill="#111B58" fill-rule="nonzero">
            <path d="M15.967 20.134c0 3.928-2.16 8.21-7.967 8.21-4.185 0-8-2.442-8-8.21 0-4.777 2.87-8.457 8.574-8.139 6.076.39 7.393 5.308 7.393 8.14zM5.131 17.126c-.54.885-.743 1.911-.743 2.973 0 2.406 1.148 4.6 3.579 4.6 2.363 0 3.544-2.017 3.544-4.423 0-1.699-.405-3.008-1.215-3.822-.912-.885-1.924-.92-2.566-.85-1.249.142-1.991.567-2.599 1.522zM54.369 13.704c.439-.484.708-.83 1.484-1.21a7.381 7.381 0 0 1 2.699-.518c.877 0 1.89.138 2.665.588 1.552.83 1.957 2.212 1.957 4.597V27.6h-4.352v-8.607c0-1.383-.034-1.867-.203-2.281-.337-.83-1.113-1.176-1.956-1.176-2.294 0-2.294 1.901-2.294 3.803v8.226h-4.385V12.356h4.419v1.348h-.034zM47.738 23.916c-.39.885-1.627 4.428-7.159 4.428-4.263 0-7.257-2.834-7.257-7.971 0-3.755 1.692-8.396 7.355-8.396.846 0 3.319-.106 5.174 2.055 1.855 2.196 1.985 5.243 2.05 7.014H37.65c-.033 1.949.976 3.897 3.286 3.897s3.091-1.63 3.612-2.763l3.19 1.736zM43.54 18.14c-.097-.673-.195-1.523-.78-2.232-.521-.567-1.335-.85-2.05-.85-1.01 0-1.725.531-2.148 1.027-.586.673-.716 1.417-.847 2.055h5.825zM107.528 15.385h2.852v-3.158h-2.82V9h-4.278v3.227h-.664l-1.957 3.158h2.654v7.253c0 1.457.033 2.533.63 3.47.929 1.423 2.554 1.492 4.047 1.492.796 0 1.36-.104 2.256-.243v-3.505l-1.526.07c-1.161 0-1.161-.798-1.128-1.735v-6.802h-.066zM64.596 9h4.41v3.227h4.58l-2.016 3.158h-2.598v6.802c-.034.937-.034 1.735 1.162 1.735l1.573-.07v3.505c-.957.139-1.539.243-2.325.243-1.538 0-3.213-.104-4.17-1.492-.616-.902-.65-1.978-.65-3.47V9h.034zM114.619 15.696h-.52v-2.523h-.942v-.42h2.404v.42h-.942v2.523zm4.092 0h-.52l.033-1.811.032-.615-.13.485-.617 1.941h-.455l-.584-1.94-.163-.486.033.582.032 1.812h-.552V12.72h.715l.747 2.329.714-2.329h.715v2.976zM87.08 23.951l-.813 1.346c-.748 1.205-2.18 3.047-6.248 3.047-4.263 0-7.126-2.834-7.126-7.971 0-3.755 1.692-8.396 7.354-8.396.846 0 3.32-.106 5.174 2.055 1.855 2.196 1.985 5.243 2.05 7.014h-10.25c-.033 1.949.846 3.897 3.124 3.897 2.31 0 2.96-1.63 3.482-2.763l3.254 1.771zm-3.97-5.774c-.097-.674-.195-1.524-.78-2.232-.521-.567-1.335-.85-2.05-.85-1.01 0-1.725.53-2.148 1.027-.586.673-.716 1.417-.846 2.055h5.825z"/>
            <path d="M101.355 27.6l-5.39-7.812 4.492-7.068h-4.924l-2.13 3.348-2.263-3.348h-4.924l4.825 7.068-4.958 7.812h4.891l2.629-4.092L96.43 27.6zM22.27 13.783c.386-.687 1.675-1.807 3.737-1.807 3.479 0 5.927 2.964 5.927 8.276 0 3.253-1.063 8.421-6.12 8.421-1.805 0-3.222-1.12-3.577-1.807v6.686H18.05V12.374h4.22v1.409zm2.835 1.88c-.774 0-1.547.325-2.159 1.192-.612.831-.87 2.096-.87 3.506 0 1.879.484 3 .999 3.65.483.614 1.192.976 1.868.976 2.03 0 2.932-2.422 2.932-4.735 0-1.951-.515-4.048-2.223-4.481a1.36 1.36 0 0 0-.547-.109z"/>
        </g>
        <path fill="#4F3690" fill-rule="nonzero" d="M151.444 28V10.864h2.217V28h-2.217zm16.124 0v-7.584c0-1.152-.257-1.988-.772-2.508-.516-.52-1.348-.78-2.497-.78-.612 0-1.22.124-1.825.372a4.521 4.521 0 0 0-1.557 1.044c-.373.368-.657.78-.85 1.236a3.61 3.61 0 0 0-.292 1.428V28h-2.105V15.592h2.083v2.304c1.269-1.792 2.963-2.688 5.083-2.688 1.598 0 2.803.404 3.617 1.212.813.808 1.22 2.004 1.22 3.588V28h-2.105zm12.99-.216c-.896.32-1.852.48-2.867.48-1.269 0-2.202-.328-2.8-.984-.596-.656-.895-1.696-.895-3.12v-6.792h-2.262v-1.776h2.262v-3.384h2.105v3.384h4.12v1.776h-4.12v6.984c0 1.376.65 2.064 1.949 2.064.716 0 1.44-.128 2.172-.384l.336 1.752zm3.248-5.352c.03 1.28.429 2.296 1.198 3.048.769.752 1.803 1.128 3.101 1.128 2.165 0 3.494-.696 3.987-2.088h2.015c-.627 2.576-2.657 3.864-6.091 3.864-1.97 0-3.516-.576-4.636-1.728-1.12-1.152-1.68-2.736-1.68-4.752 0-1.296.258-2.448.773-3.456a5.753 5.753 0 0 1 2.228-2.376c.97-.576 2.098-.864 3.382-.864 1.956 0 3.479.548 4.568 1.644 1.09 1.096 1.635 2.628 1.635 4.596v.984h-10.48zm8.42-1.704c-.015-1.2-.38-2.128-1.097-2.784-.717-.656-1.74-.984-3.068-.984-1.15 0-2.105.336-2.867 1.008-.761.672-1.21 1.592-1.343 2.76h8.375zm15.497 4.56a5.47 5.47 0 0 1-2.127 1.836c-.866.424-1.859.636-2.978.636-1.135 0-2.146-.252-3.035-.756-.888-.504-1.586-1.236-2.094-2.196-.507-.96-.761-2.072-.761-3.336 0-1.168.25-2.224.75-3.168a5.706 5.706 0 0 1 2.15-2.256c.933-.56 2.004-.84 3.214-.84 1.12 0 2.075.192 2.866.576.791.384 1.485.992 2.083 1.824v-2.016h2.038v10.224c0 2.48-.497 4.284-1.49 5.412-.992 1.128-2.594 1.692-4.803 1.692-1.941 0-3.419-.308-4.434-.924-1.015-.616-1.62-1.564-1.814-2.844h2.083c.223.704.656 1.212 1.298 1.524.642.312 1.59.468 2.844.468 1.449 0 2.512-.352 3.192-1.056.679-.704 1.018-1.808 1.018-3.312v-1.488zm.023-4.08c0-1.136-.396-2.128-1.187-2.976-.732-.784-1.777-1.176-3.135-1.176-1.418 0-2.52.384-3.303 1.152-.784.768-1.176 1.848-1.176 3.24 0 1.376.388 2.464 1.165 3.264.776.8 1.828 1.2 3.157 1.2.687 0 1.321-.112 1.904-.336.582-.224 1.06-.544 1.433-.96.761-.816 1.142-1.776 1.142-2.88v-.528zM213.12 28V15.592h2.083v2.328c.567-.832 1.22-1.464 1.96-1.896a4.646 4.646 0 0 1 2.384-.648c.329 0 .732.04 1.21.12l-.247 1.968a6.121 6.121 0 0 0-1.142-.12c-.627 0-1.18.096-1.657.288a3.98 3.98 0 0 0-1.321.888c-.776.768-1.165 1.664-1.165 2.688V28h-2.105zm10.056 0V15.592h2.105V28h-2.105zm-.067-14.688v-2.448h2.24v2.448h-2.24zm13.37 14.472c-.896.32-1.851.48-2.866.48-1.27 0-2.202-.328-2.8-.984-.597-.656-.895-1.696-.895-3.12v-6.792h-2.262v-1.776h2.262v-3.384h2.105v3.384h4.12v1.776h-4.12v6.984c0 1.376.65 2.064 1.948 2.064.717 0 1.44-.128 2.172-.384l.336 1.752zm6.54-.096l-5.822-12.096h2.463l4.501 9.744 4.098-9.744h2.352l-6.136 13.8c-.582 1.312-1.19 2.228-1.825 2.748s-1.452.78-2.452.78c-.403 0-.762-.036-1.075-.108a6.124 6.124 0 0 1-1.03-.348l.38-1.728c.493.192.986.288 1.478.288.583 0 1.071-.156 1.467-.468.396-.312.735-.804 1.019-1.476l.582-1.392z"/>
        <path stroke="#7E929F" stroke-linecap="square" d="M134.364 1v39" opacity=".5"/>
    </g>
</svg>
