<svg xmlns="http://www.w3.org/2000/svg" width="113" height="37" viewBox="0 0 113 37">
    <g fill="none">
        <g fill="#141413">
            <path d="M1.887 1.834c.246 0 .475.045.686.137.212.091.397.219.556.38.157.163.281.356.372.58.09.224.135.469.135.73 0 .265-.046.51-.135.735-.09.224-.213.419-.372.58-.16.161-.342.29-.556.38-.211.092-.441.137-.686.137-.29 0-.542-.053-.75-.16-.21-.109-.385-.252-.526-.43V6.91H.056V1.905h.555v.52c.14-.177.315-.32.525-.428.209-.109.46-.163.75-.163zm-.067.522c-.183 0-.35.033-.502.1-.153.067-.285.158-.394.276-.11.117-.195.254-.257.413-.062.16-.092.334-.092.52 0 .185.03.358.092.52.062.161.147.3.257.417.11.117.24.208.394.275.153.067.32.1.502.1.188 0 .359-.033.511-.101.153-.069.286-.162.394-.282.109-.119.192-.257.252-.417.06-.158.091-.33.091-.513 0-.18-.03-.351-.09-.51-.061-.158-.146-.298-.256-.416-.11-.12-.242-.213-.395-.28-.153-.067-.322-.102-.507-.102zM6.238 1.834c.263 0 .508.047.734.14.225.093.42.22.583.385.164.164.292.357.386.58.094.223.141.464.141.725 0 .262-.047.503-.14.728-.095.223-.223.418-.387.581-.163.163-.358.292-.583.385-.226.093-.471.14-.734.14s-.509-.047-.733-.14c-.223-.093-.419-.22-.583-.385-.165-.164-.294-.358-.386-.581-.093-.224-.14-.467-.14-.728 0-.26.047-.502.14-.726.092-.223.22-.416.386-.58.164-.162.36-.291.583-.384.224-.093.47-.14.733-.14zm0 .522c-.183 0-.351.033-.507.099-.156.065-.29.156-.406.27-.115.116-.204.255-.269.414-.065.16-.098.337-.098.525 0 .19.033.367.098.527.065.16.156.298.27.414.114.117.25.207.405.274.156.067.324.099.507.099.18 0 .348-.034.505-.1.156-.065.292-.156.407-.273.115-.117.204-.254.27-.414.064-.16.098-.335.098-.527 0-.188-.034-.363-.099-.525-.065-.161-.155-.3-.269-.414-.115-.115-.25-.205-.407-.27-.157-.067-.325-.1-.505-.1zM12.948 4.85L14.001 1.905 14.574 1.905 13.28 5.427 12.627 5.427 11.58 2.5 10.537 5.427 9.894 5.427 8.601 1.905 9.189 1.905 10.236 4.847 11.279 1.905 11.899 1.905zM16.848 1.834c.236 0 .455.044.656.134.202.09.374.213.52.374.145.16.258.351.341.575.083.224.126.469.127.737 0 .077-.003.146-.01.208h-2.807c.02.19.065.358.136.5.072.144.164.263.274.36.11.097.238.169.379.218.142.048.292.073.449.073.216 0 .419-.04.605-.118.186-.077.354-.187.505-.325l.297.379c-.109.103-.221.191-.336.261-.116.07-.233.128-.352.17-.12.045-.243.074-.368.092-.126.017-.253.026-.381.026-.26 0-.497-.044-.714-.132-.217-.089-.404-.213-.56-.375-.156-.161-.279-.354-.366-.578-.088-.224-.132-.473-.132-.746 0-.27.044-.517.132-.742.087-.224.208-.417.364-.578.156-.162.34-.288.55-.378.211-.09.441-.135.69-.135zm-.012.494c-.164 0-.31.028-.442.08-.132.054-.247.129-.343.225-.097.095-.177.21-.241.342-.064.132-.106.278-.127.437h2.248c-.017-.165-.056-.312-.116-.446-.06-.134-.138-.248-.233-.343-.096-.094-.206-.167-.333-.217-.127-.052-.265-.078-.413-.078zM21.107 1.834c.125 0 .24.009.345.027.104.018.204.049.298.091l-.133.547c-.087-.047-.184-.082-.29-.107-.108-.023-.214-.035-.317-.035-.138 0-.265.026-.378.078-.115.052-.214.126-.295.22-.084.096-.147.21-.194.346-.047.135-.07.286-.07.452v1.97h-.55V1.905h.547V2.4c.121-.181.27-.321.448-.419.174-.097.37-.147.589-.147zM23.912 1.834c.236 0 .455.044.656.134.201.09.374.213.52.374.144.16.258.351.341.575.083.224.126.469.127.737 0 .077-.003.146-.01.208h-2.807c.02.19.065.358.136.5.071.144.164.263.274.36.11.097.238.169.378.218.143.048.292.073.45.073.216 0 .419-.04.605-.118.186-.077.354-.187.505-.325l.297.379c-.11.103-.221.191-.336.261-.117.07-.233.128-.353.17-.12.045-.242.074-.367.092-.126.017-.253.026-.382.026-.258 0-.496-.044-.714-.132-.216-.089-.404-.213-.56-.375-.155-.161-.278-.354-.366-.578-.087-.224-.131-.473-.131-.746 0-.27.044-.517.131-.742.088-.224.21-.417.365-.578.156-.162.339-.288.55-.378.211-.09.443-.135.69-.135zm-.011.494c-.163 0-.31.028-.442.08-.131.054-.246.129-.343.225-.097.095-.177.21-.24.342-.064.132-.107.278-.128.437h2.248c-.016-.165-.056-.312-.116-.446-.06-.134-.138-.248-.233-.343-.095-.094-.206-.167-.333-.217-.129-.052-.265-.078-.413-.078zM28.068 1.834c.29 0 .541.054.752.164.21.11.385.253.526.43V.073h.55v5.355h-.55v-.525c-.14.18-.316.325-.526.433-.21.108-.462.162-.752.162-.247 0-.477-.046-.69-.137-.214-.092-.398-.22-.556-.38-.157-.162-.28-.357-.369-.58-.089-.224-.134-.47-.134-.736 0-.263.045-.506.134-.73.09-.224.214-.417.37-.58.155-.163.341-.289.555-.38.213-.093.443-.14.69-.14zm.066.522c-.187 0-.358.033-.511.102-.155.068-.286.16-.395.28-.11.118-.195.257-.256.417-.06.158-.09.328-.09.51 0 .183.03.354.09.512.06.158.147.297.257.417.11.119.244.213.398.282.155.068.324.102.509.102.183 0 .35-.034.502-.1.153-.068.284-.16.393-.276.11-.117.195-.256.258-.417.062-.162.092-.335.092-.52 0-.186-.03-.36-.092-.52-.063-.16-.147-.298-.258-.413-.11-.118-.24-.209-.393-.276-.154-.067-.322-.1-.504-.1zM34.995 1.834c.247 0 .475.045.687.137.212.091.396.219.555.38.158.163.282.356.373.58.089.224.134.469.134.73 0 .265-.045.51-.134.735-.091.224-.214.419-.373.58-.159.161-.342.29-.555.38-.212.092-.442.137-.687.137-.29 0-.541-.053-.75-.16-.209-.109-.384-.252-.525-.43v.52h-.555V.072h.555v2.354c.14-.178.315-.321.525-.43.209-.108.458-.162.75-.162zm-.066.522c-.183 0-.35.033-.503.1-.152.067-.284.158-.393.276-.11.117-.195.254-.257.413-.062.16-.092.334-.092.52 0 .185.03.358.092.52.062.161.147.3.257.417.109.117.24.208.393.275.153.067.321.1.503.1.187 0 .358-.033.511-.101.153-.069.286-.162.393-.282.11-.119.193-.257.253-.417.06-.158.09-.33.09-.513 0-.18-.03-.351-.09-.51-.06-.158-.145-.298-.256-.416-.11-.12-.242-.213-.395-.28-.152-.067-.322-.102-.506-.102zM38.004 6.928L37.395 6.928 38.7 4.664 37.092 1.905 37.709 1.905 39.015 4.113 40.25 1.905 40.856 1.905z" transform="translate(2)"/>
        </g>
        <g>
            <path fill="#FF5F00" d="M13.522 2.674H23.409V20.442999999999998H13.522z" transform="translate(0 11)"/>
            <path fill="#EB001B" d="M14.15 11.557c-.004-3.467 1.588-6.743 4.316-8.883C13.833-.966 7.18-.436 3.182 3.893c-3.998 4.329-3.998 11.003 0 15.332 3.998 4.33 10.651 4.86 15.284 1.219-2.728-2.141-4.32-5.418-4.316-8.887z" transform="translate(0 11)"/>
            <path fill="#F79E1B" d="M36.747 11.557c0 4.326-2.47 8.273-6.36 10.164-3.89 1.89-8.52 1.395-11.92-1.277 2.725-2.143 4.317-5.418 4.317-8.885 0-3.467-1.592-6.742-4.318-8.885 3.401-2.672 8.03-3.168 11.92-1.278 3.89 1.89 6.36 5.836 6.361 10.161zM35.681 19.1v-.79h.152v-.161h-.392v.16h.155v.812l.085-.021zm.76 0v-.98h-.122l-.138.7-.138-.7h-.118v.98h.085v-.7l.119.609h.089l.128-.643v.74l.095-.006z" transform="translate(0 11)"/>
            <path fill="#000" d="M48.194 22.923L48.107 22.923 48.107 19.11 48.107 11.482 48.107 3.858 48.107.044 48.194.044 48.194 7.668 48.194 15.296zM70.43 4.872h-5.769V19.57h-1.397v-14.7h-5.778V3.545H70.43v1.328zm4.831 3.744c.363-.003.726.03 1.083.098.327.061.644.167.942.313l-.33 1.272c-.287-.147-.593-.253-.91-.314-.33-.07-.665-.106-1.001-.107-.433-.008-.862.081-1.256.26-.374.174-.706.427-.973.741-.279.339-.492.726-.628 1.143-.156.48-.234.98-.229 1.485v6.064h-1.293V8.789h1.284v1.833c.325-.605.802-1.116 1.384-1.482.58-.354 1.248-.536 1.927-.524zm13.66 10.955h-1.296v-2.072c-.43.678-1.02 1.238-1.72 1.633-.78.43-1.659.646-2.549.627-.727.007-1.448-.135-2.118-.417-.64-.268-1.22-.662-1.705-1.158-.49-.506-.877-1.102-1.14-1.755-.556-1.428-.556-3.013 0-4.442.264-.655.65-1.254 1.14-1.764.483-.499 1.063-.894 1.705-1.161.67-.282 1.391-.424 2.118-.417 1.72-.06 3.343.791 4.27 2.24V8.79h1.296V19.57zm-5.427-9.718c-.583-.006-1.16.108-1.698.336-.5.216-.95.53-1.327.923-.376.396-.67.864-.864 1.374-.414 1.1-.414 2.313 0 3.412.2.51.499.974.88 1.366.377.392.831.704 1.333.916 1.081.44 2.29.44 3.371 0 .5-.212.95-.521 1.328-.91.378-.396.673-.864.87-1.375.413-1.113.413-2.339 0-3.452-.194-.512-.49-.978-.87-1.372-.378-.388-.83-.697-1.328-.91-.537-.22-1.114-.324-1.695-.308zM97.04 8.629c.763-.008 1.52.137 2.225.427.67.28 1.267.71 1.745 1.255l-.844.882c-.407-.411-.887-.743-1.416-.98-.55-.237-1.145-.356-1.745-.347-.563-.009-1.121.098-1.641.313-.498.21-.949.517-1.325.904-.38.396-.677.864-.876 1.375-.418 1.119-.418 2.35 0 3.469.197.51.495.974.876 1.365.784.797 1.858 1.24 2.976 1.227.608.007 1.211-.118 1.767-.367.53-.238 1.013-.567 1.428-.973l.81.892c-.482.545-1.08.974-1.752 1.255-1.427.57-3.017.57-4.444 0-.656-.268-1.25-.665-1.749-1.168-.492-.504-.88-1.102-1.14-1.757-.539-1.422-.539-2.992 0-4.414.519-1.332 1.564-2.392 2.889-2.928.705-.291 1.462-.437 2.225-.43h-.01zm7.668 4.708h1.752l4.545-4.548h1.648l-5.13 5.085 5.22 5.688h-1.66l-4.614-5.048h-1.752v5.057h-1.302V3.086h1.302l-.009 10.251z" transform="translate(0 11)"/>
        </g>
    </g>
</svg>
